<?xml version="1.0" encoding="UTF-8"?><svg id="Layer_1" xmlns="http://www.w3.org/2000/svg" viewBox="0 0 101.46 102.61"><defs><style>.cls-1{fill:#ebebe9;}.cls-2{fill:#1a191a;}.cls-3{fill:#3b3a3a;}.cls-4{fill:#3b3b3b;}.cls-5{fill:#3a3a3a;}.cls-6{fill:#1a1a1a;}.cls-7{fill:#191819;}.cls-8{fill:#1b1a1b;}.cls-9{fill:#eaeae8;}</style></defs><path class="cls-8" d="M54.02,82.71l-2.47-.3-7.87-1.12-2.11-.34-1.01-.17c-6.07-1.03-14.01-3.48-19.59-6.2-1.84-.9-3.58-1.87-5.21-3.1-2.02-1.51-3.7-3.5-3.92-6.1-.1-1.12-.03-2.21.16-3.32.18-1.02.5-1.94.77-2.96l3.17-12.14c-2.86-.57-6.73.55-9.16-1.34-.83-.64-1.34-1.55-1.38-2.61,0-.12-.12-.23-.09-.34.1-.48.07-.99.25-1.45.06-.17.2-.34.29-.51.49-.96,1.41-1.56,2.44-1.87,2.75-.82,6.77-.27,9.63.08l.47-1.97c-1.69-.56-2.8-1.6-2.89-3.43-.13-2.51,1.85-4.02,4.26-4.12,6.89-5.16,15.78-7.41,24.31-7.53,2-.03,3.88.05,5.91.17-1.34-1.27-2.05-2.59-1.69-4.45.48-2.48,2.72-3.6,5.05-3.8.1,0,.24-.13.36-.11l4.66.72c.79.12,1.48.7,2.13,1.14.69.46,1.25,1.07,1.62,1.82.92,1.86.36,4.12-1.27,5.36-.44.34-.92.5-1.41.77-.07.03-.02.05.05.08l3.77,1.11c4.74,1.4,9.17,3.72,13.18,6.62,2.67,1.93,5.03,4.15,7.12,6.67.46.55.8,1.24,1.33,1.66.65.38,1.38.57,1.99,1.03,1.04.79,1.64,1.92,1.63,3.25,0,2.03-1.22,3.46-3.31,3.53-.14.3-.22.6-.25.97l2.21.41c2.35.44,5.29,1.05,7.28,2.4,1.65,1.12,2.15,3.15,1.3,4.93-.56,1.18-1.58,1.95-2.92,2.13-1,.13-2.01.05-3-.23l-3.17-.92c-.91-.26-2.41-.59-3.27-.22-.3.13-.48.42-.6.73-.38,1.02-.6,2.05-.85,3.12l-1.43,5.95-2.4,9.9c-.19.79-.49,1.46-.85,2.18-.55,1.1-1.37,2.01-2.46,2.6-1.34.72-2.75,1.1-4.25,1.36-2.51.43-4.96.54-7.51.49s-5.03-.07-7.55-.36l-1.44-.17ZM61.3,19.65c.33-2.27-1.83-3.62-3.69-4.24s-3.68-.7-5.5-.17c-1.46.42-2.57,1.4-2.7,2.95-.08.94.27,1.91,1.02,2.56,1.09.95,2.4,1.57,3.83,1.83,2.48.44,6.58.26,7.05-2.93ZM60.1,33.85l1.52.28,5.54,1.09,5.77,1.26,7.19,1.8c.87.22,1.65.53,2.59.65-.56-.88-1.27-1.53-1.94-2.24-.92-.98-1.82-1.86-2.88-2.72-3.46-2.83-7.31-5.18-11.48-6.85-8.16-3.26-16.57-4.52-25.34-3.92-2.27.15-4.4.47-6.59.96-1.51.34-2.93.69-4.37,1.23-1.98.71-3.88,1.48-5.73,2.47-.86.46-1.65.92-2.41,1.57l2.61.14,7.76.46,8.29.86,11.83,1.67,3.27.51,4.38.77ZM61.91,41.23l4.48.93,5.25,1.13,11.98,2.81c1.3.15,2.88.41,3.46-1.04.47-1.19.21-2.56-.84-3.35-.5-.38-1.06-.64-1.67-.84-2.34-.79-4.67-1.49-7.09-2.08-6.45-1.6-12.88-2.99-19.41-4.12l-1.64-.29-1.48-.26c-.43-.08-.82-.07-1.24-.25l-12.26-1.72-2-.23-1.41-.15c-4.33-.46-8.6-.83-12.96-1.01l-4.42-.18c-1.61-.06-3.62.36-3.9,2.23-.11.72-.08,1.51.45,2.06.64.67,1.55,1.05,2.5,1.1l7.78.36,3.54.28,6.94.68,1.84.23,2.42.3c1.02.13,2.01.27,3,.43l1.88.31,1.52.26,1.75.29,1.8.3,1.71.28,3.3.6,4.7.91ZM40.96,38.9l-3.54-.47-4.95-.53c-.51-.05-.97-.18-1.48-.04.22.29.52.36.79.52,1.57.92,4.18,2.33,5.98,2.35,1.24.01.95-1.19,1.69-1.06.23.04.39.27.46.45.09.21-.02.45-.13.65-.39.73-1.13,1.03-1.99,1.15,1.37,1.47,1.86,2.91,2.19,4.89.59-.57,1.02-1.2,1.64-1.69.83-.66,1.73-1.14,2.74-1.55-.81-.56-1.27-2.22-.45-2.5.19-.07.44-.08.6.12.32.4-.22,1.17.86,1.66,1.97.88,5.74.62,7.93.53.35-.02.46.37.44.64-.04.85-1.84.44-2.64.69,1.53,1.41,2.46,3.11,2.74,5.12.51,3.62-1.2,7.28-4.3,9.23-3.4,2.13-7.64,1.36-9.96-2-.79-1.14-1.18-2.42-1.42-3.8-.35.25-.55.53-.8.84.26.15.44.28.54.53.09.22,0,.45-.12.58-.18.17-.43.18-.64.08l-1.18-.55c-.55-.26-1.11-.39-1.72-.36-.95.06-1.58.84-1.4,1.79.14.72.69,1.21,1.37,1.51,1.26.55,2.35-.07,2.59.71.06.18.03.57-.24.63-1.78.37-4.15-.44-4.82-2.32-2.38-.04-4.23-.78-5.75-2.62-3.21-3.9-2.09-9.86,1.95-12.77,1.12-.8,2.33-1.24,3.72-1.48-.55-.56-1.83-.89-1.93-1.48-.03-.2.1-.4.16-.65-3.44-.32-6.85-.44-10.32-.53l-1.91,7.86-3.05,11.82-1.2,4.39c-.34,1.24-.46,2.45-.39,3.73.06,1.19.42,2.27,1.13,3.23.85,1.16,1.92,2.08,3.12,2.89,3.23,2.18,7.38,3.97,11.07,5.22l2.59.88c2.91.99,5.87,1.65,8.89,2.24l3.45.67,1.65.27c.6.1,1.21.24,1.82.27,1.3.07,2.5.32,3.87.46l2.42.24,1.67.2c1.41.17,2.77.31,4.21.39,4.35.25,11.34.45,15.24-1.55,1.72-.88,2.55-2.97,2.97-4.77l1.3-5.63c.19-.83.26-1.64.54-2.47.18-.53.34-1.05.47-1.61l1.84-7.54c.25-1.01.76-2.29,1.83-2.61,2.65-.79,6.08,1.41,8.68,1.42.68,0,1.41-.06,1.99-.46.85-.6,1.3-1.72,1.12-2.75-.13-.75-.64-1.36-1.25-1.77-1.69-1.16-4.99-1.89-7.02-2.21l-2.54-.4c-.22-.03-.41-.21-.49-.35-.23-.41.31-1.24.26-1.84l-11.51-2.71-3.15-.7-6.64-1.4-8.63-1.64-1.08-.18-1.59-.26-2.01-.33-4.82-.74c-1.15-.18-2.25-.33-3.46-.49ZM11.76,45.6c1.55-.05,3-.05,4.53.2l1.38-5.7c-2.08-.31-4.09-.49-6.16-.49-1.1.03-2.14.1-3.14.48-.97.33-1.59,1.11-1.76,2.08-.22,1.34.46,2.53,1.75,2.99,1.07.38,2.19.48,3.4.44ZM31.68,55.46c.31-1.69,1.74-2.42,3.3-2.23.43.05.81.22,1.25.3,2.85-2.55,3.51-7.57.94-10.57-1.15-1.35-2.85-2.12-4.66-2.04.5.57.91,1.01,1.19,1.62.41,1.01.57,2.09.49,3.17l-3.62.52,2.91,2.36c-.46,1.47-1.33,2.68-2.47,3.66-.38.39-.85.58-1.33.81-.85.4-1.72.43-2.72.28,1.04,1.43,3.03,2.28,4.72,2.11ZM47.85,58.6c3.42-1.41,5.31-5.05,4.83-8.69-.22-1.64-.99-3.1-2.22-4.18s-2.33-1.19-3.97-1.24c.67.49,1.06,1.17,1.38,1.95.28.9.41,1.83.3,2.78l-3.65.51,3,2.38c-.91,2.59-3.48,5.52-6.53,4.75,1.51,2.15,4.52,2.7,6.86,1.74Z"/><path class="cls-5" d="M40.96,38.9c1.2.16,2.3.31,3.46.49l4.82.74,2.01.33,1.59.26,1.08.18,8.63,1.64,6.64,1.4,3.15.7,11.51,2.71c.05.6-.49,1.44-.26,1.84.08.14.27.32.49.35l2.54.4c2.04.32,5.33,1.04,7.02,2.21.61.42,1.12,1.02,1.25,1.77.18,1.03-.26,2.15-1.12,2.75-.58.41-1.3.47-1.99.46-2.6,0-6.03-2.21-8.68-1.42-1.07.32-1.58,1.6-1.83,2.61l-1.84,7.54c-.14.56-.29,1.07-.47,1.61-.28.82-.35,1.63-.54,2.47l-1.3,5.63c-.42,1.8-1.24,3.89-2.97,4.77-3.9,2-10.89,1.8-15.24,1.55-1.44-.08-2.8-.22-4.21-.39l-1.67-.2-2.42-.24c-1.37-.14-2.57-.39-3.87-.46-.61-.03-1.22-.17-1.82-.27l-1.65-.27-3.45-.67c-3.02-.59-5.98-1.25-8.89-2.24l-2.59-.88c-3.68-1.25-7.83-3.04-11.07-5.22-1.2-.81-2.27-1.73-3.12-2.89-.71-.96-1.07-2.04-1.13-3.23-.07-1.29.05-2.49.39-3.73l1.2-4.39,3.05-11.82,1.91-7.86c3.47.09,6.88.21,10.32.53-.06.26-.2.46-.16.65.09.58,1.38.91,1.93,1.48-1.39.23-2.6.67-3.72,1.48-4.04,2.91-5.15,8.88-1.95,12.77,1.52,1.84,3.37,2.58,5.75,2.62.67,1.88,3.04,2.69,4.82,2.32.28-.06.3-.45.24-.63-.24-.78-1.33-.16-2.59-.71-.68-.3-1.23-.79-1.37-1.51-.18-.94.45-1.73,1.4-1.79.61-.04,1.18.1,1.72.36l1.18.55c.22.1.46.09.64-.08.13-.12.22-.35.12-.58-.1-.25-.29-.38-.54-.53.24-.31.45-.59.8-.84.24,1.38.63,2.66,1.42,3.8,2.32,3.36,6.56,4.13,9.96,2,3.1-1.94,4.81-5.61,4.3-9.23-.28-2.01-1.22-3.71-2.74-5.12.8-.25,2.6.16,2.64-.69.01-.27-.09-.66-.44-.64-2.18.1-5.96.35-7.93-.53-1.08-.48-.54-1.26-.86-1.66-.16-.2-.42-.19-.6-.12-.82.29-.36,1.94.45,2.5-1.01.42-1.91.9-2.74,1.55-.62.49-1.05,1.12-1.64,1.69-.32-1.99-.81-3.42-2.19-4.89.86-.12,1.6-.42,1.99-1.15.11-.21.22-.44.13-.65-.07-.18-.23-.41-.46-.45-.73-.13-.45,1.07-1.69,1.06-1.8-.02-4.42-1.43-5.98-2.35-.27-.16-.57-.23-.79-.52.51-.14.97-.01,1.48.04l4.95.53,3.54.47ZM42.85,40.38c.15-.23.11-.66-.16-.79-.63-.29-1.35,1.36-.95,2.6.09.27.38.4.58.33.63-.23-.14-1.11.53-2.15ZM42.18,64.19c.12.7,1.05,2.77,1.92,2.05.29-.24.25-.68.01-.96-.8-.91-.97-2.13-.4-3.18.18-.33.03-.68-.25-.83-.29-.16-.65-.07-.84.23-.22.35-.32.72-.43,1.18-3.31-1.58-7.11-1.54-10.4-.13-.36.15-.47.6-.31.89s.51.41.83.26c2.7-1.28,7.35-1.28,9.87.5ZM38.19,66.15c.36-.09.53-.71.24-.98-.97-.9-2.38-1.11-3.61-.69-.39.13-.56.45-.46.84.08.3.48.5.83.36,1.58-.6,2.3.64,2.99.46Z"/><path class="cls-5" d="M61.91,41.23l-4.7-.91-3.3-.6-1.71-.28-1.8-.3-1.75-.29-1.52-.26-1.88-.31c-1-.16-1.98-.3-3-.43l-2.42-.3-1.84-.23-6.94-.68-3.54-.28-7.78-.36c-.95-.04-1.86-.42-2.5-1.1-.53-.55-.56-1.34-.45-2.06.28-1.87,2.28-2.3,3.9-2.23l4.42.18c4.36.17,8.63.55,12.96,1.01l1.41.15,2,.23,12.26,1.72c.43.18.81.18,1.24.25l1.48.26,1.64.29c6.52,1.13,12.96,2.52,19.41,4.12,2.41.6,4.75,1.3,7.09,2.08.61.21,1.16.46,1.67.84,1.04.79,1.31,2.16.84,3.35-.58,1.45-2.15,1.19-3.46,1.04l-11.98-2.81-5.25-1.13-4.48-.93Z"/><path class="cls-3" d="M60.1,33.85l-4.38-.77-3.27-.51-11.83-1.67-8.29-.86-7.76-.46-2.61-.14c.76-.66,1.55-1.11,2.41-1.57,1.85-.99,3.75-1.77,5.73-2.47,1.45-.54,2.87-.89,4.37-1.23,2.19-.5,4.33-.81,6.59-.96,8.78-.6,17.18.66,25.34,3.92,4.18,1.67,8.02,4.01,11.48,6.85,1.06.86,1.96,1.74,2.88,2.72.68.72,1.38,1.36,1.94,2.24-.94-.12-1.72-.43-2.59-.65l-7.19-1.8-5.77-1.26-5.54-1.09-1.52-.28Z"/><path class="cls-1" d="M47.85,58.6c-2.34.96-5.35.41-6.86-1.74,3.05.77,5.62-2.16,6.53-4.75l-3-2.38,3.65-.51c.11-.96-.03-1.88-.3-2.78-.32-.77-.7-1.45-1.38-1.95,1.63.04,2.74.17,3.97,1.24s2,2.54,2.22,4.18c.48,3.64-1.41,7.28-4.83,8.69Z"/><path class="cls-4" d="M61.3,19.65c-.46,3.2-4.56,3.37-7.05,2.93-1.42-.25-2.74-.87-3.83-1.83-.75-.66-1.1-1.63-1.02-2.56.13-1.55,1.24-2.53,2.7-2.95,1.82-.53,3.7-.42,5.5.17s4.02,1.96,3.69,4.24Z"/><path class="cls-9" d="M31.68,55.46c-1.69.16-3.68-.68-4.72-2.11.99.15,1.86.12,2.72-.28.48-.23.95-.43,1.33-.81,1.14-.97,2.01-2.19,2.47-3.66l-2.91-2.36,3.62-.52c.08-1.08-.08-2.16-.49-3.17-.28-.61-.69-1.06-1.19-1.62,1.81-.08,3.5.69,4.66,2.04,2.57,3,1.91,8.02-.94,10.57-.44-.08-.82-.25-1.25-.3-1.55-.19-2.99.54-3.3,2.23Z"/><path class="cls-5" d="M11.76,45.6c-1.21.04-2.33-.06-3.4-.44-1.29-.46-1.97-1.65-1.75-2.99.16-.98.79-1.75,1.76-2.08,1-.38,2.04-.45,3.14-.48,2.07,0,4.08.18,6.16.49l-1.38,5.7c-1.53-.25-2.98-.25-4.53-.2Z"/><path class="cls-7" d="M42.18,64.19c-2.52-1.78-7.17-1.78-9.87-.5-.32.15-.68.02-.83-.26s-.05-.73.31-.89c3.29-1.4,7.09-1.45,10.4.13.12-.45.21-.83.43-1.18.19-.3.55-.38.84-.23s.43.51.25.83c-.57,1.05-.4,2.27.4,3.18.24.27.28.71-.01.96-.87.72-1.8-1.35-1.92-2.05Z"/><path class="cls-2" d="M38.19,66.15c-.69.18-1.41-1.06-2.99-.46-.35.13-.76-.06-.83-.36-.1-.39.07-.7.46-.84,1.23-.43,2.63-.21,3.61.69.28.26.12.88-.24.98Z"/><path class="cls-6" d="M42.85,40.38c-.67,1.04.1,1.92-.53,2.15-.2.07-.5-.06-.58-.33-.4-1.25.32-2.89.95-2.6.27.13.31.55.16.79Z"/></svg>